<?xml version="1.0" encoding="UTF-8"?>
<!-- Generator: Adobe Illustrator 17.1.0, SVG Export Plug-In . SVG Version: 6.00 Build 0)  -->
<!DOCTYPE svg PUBLIC "-//W3C//DTD SVG 1.1//EN" "http://www.w3.org/Graphics/SVG/1.1/DTD/svg11.dtd">
<svg version="1.1" id="Capa_1" xmlns="http://www.w3.org/2000/svg" xmlns:xlink="http://www.w3.org/1999/xlink" x="0px" y="0px" viewBox="0 0 630.6 190.2" enable-background="new 0 0 630.6 190.2" xml:space="preserve">
<path fill="#FFFFFF" d="M67.2,133.2c-14,0-26.5-5.4-35.7-14.4v66H0V8.9h30v12.8C39.5,11.9,52.5,6,67.2,6c31.9,0,57.9,27.4,57.9,63.4  C125.1,105.6,99.1,133.2,67.2,133.2 M62.7,35.1c-17.3,0-31.2,15.4-31.2,34.3c0,19.2,14,34.7,31.2,34.7c17.3,0,31.2-14.9,31.2-34.7  C93.9,49.8,79.9,35.1,62.7,35.1 M260.8,130.6H231v-13c-9.5,9.9-22.5,15.6-37.4,15.6c-31.7,0-57.9-27.4-57.9-63.4  c0-36.2,26.3-63.6,57.9-63.6c14.9,0,27.9,5.7,37.4,15.6v-13h29.8V130.6z M198.4,35.1c-17.3,0-31.2,15.1-31.2,35  c0,19.4,14,34.3,31.2,34.3c17.3,0,31.2-15.4,31.2-34.3C229.6,50.7,215.6,35.1,198.4,35.1 M403.5,124.5c0,40.4-24.1,65.7-63.1,65.7  c-29.1,0-54.4-16.8-59.1-42.6h34.3c4,9.7,16.3,13.5,24.8,13.5c22,0,31.9-14.4,31.9-36.2V119c-9.5,9-21.8,14.2-35.9,14.2  c-31.7,0-57.9-27.4-57.9-63.4c0-36.2,26.2-63.6,57.9-63.6c14.9,0,27.7,5.7,37.4,15.6v-13h29.8V124.5z M341.1,35.1  c-17.3,0-31.2,15.1-31.2,35c0,19.4,13.9,34.3,31.2,34.3c17.3,0,31.2-15.4,31.2-34.3C372.3,50.7,358.4,35.1,341.1,35.1 M451.9,81.9  c4,14.9,15.8,24.1,30.5,24.1c10.4,0,20.6-4.5,25.8-14.2h33.3c-7.1,24.8-28.6,41.6-58.9,41.6c-34.3,0-62.4-28.4-62.4-63.6  c0-35.2,28.1-64.1,62.4-64.1c35.9,0,65.7,27.9,61.2,76.1H451.9z M512.9,56.4c-3.8-14.2-15.6-23.2-30.5-23.2c-14.2,0-25.5,9-30,23.2  H512.9z M630.6,36.8c-12.5-1.4-22.9,0-30,7.6c-6.6,6.9-7.8,16.8-7.8,26.5v59.8h-31.2V8.9h29.8v12.1C601.3,8.6,616,4.1,630.6,6.5  V36.8z"/>
</svg>